<svg xmlns="http://www.w3.org/2000/svg" xmlns:xlink="http://www.w3.org/1999/xlink" width="254" height="191" viewBox="0 0 254 191">
  <defs>
    <linearGradient id="linear-gradient" y1="0.5" x2="1" y2="0.5" gradientUnits="objectBoundingBox">
      <stop offset="0" stop-color="#2057ff"/>
      <stop offset="1" stop-color="#00b0ff"/>
    </linearGradient>
    <linearGradient id="linear-gradient-2" x1="1" y1="0.5" x2="0" y2="0.5" gradientUnits="objectBoundingBox">
      <stop offset="0" stop-color="#b500ac"/>
      <stop offset="1" stop-color="#ff00e5"/>
    </linearGradient>
  </defs>
  <g id="Group_3952" data-name="Group 3952" transform="translate(-1166 -2601)">
    <rect id="Rectangle_8104" data-name="Rectangle 8104" width="254" height="191" transform="translate(1166 2601)" fill="none"/>
    <g id="Group_3951" data-name="Group 3951" transform="translate(1173 2636)">
      <g id="Group_17" data-name="Group 17" transform="translate(79.334 37.936)">
        <path id="Path_17" data-name="Path 17" d="M633.217,281.608V243.639a2.911,2.911,0,0,1,2.895-2.9h5.68a2.789,2.789,0,0,1,2.072.839,2.835,2.835,0,0,1,.839,2.041v37.97a2.692,2.692,0,0,1-.87,2.025,2.9,2.9,0,0,1-2.057.839h-5.664a2.863,2.863,0,0,1-2.041-.808A2.623,2.623,0,0,1,633.217,281.608Z" transform="translate(-633.215 -239.77)" fill="#0d0736"/>
        <path id="Path_18" data-name="Path 18" d="M649.509,281.595V243.626a2.882,2.882,0,0,1,.823-2.041,2.725,2.725,0,0,1,2.026-.855h23.271q18.463,0,18.448,17.008t-18.448,17.007H661.011v6.866a2.7,2.7,0,0,1-.839,2.025,2.764,2.764,0,0,1-2.025.839H652.42a2.844,2.844,0,0,1-2.056-.839A2.723,2.723,0,0,1,649.509,281.595Zm11.5-15.5h11.074a14.341,14.341,0,0,0,7.785-1.724c1.771-1.139,2.641-3.353,2.641-6.645s-.87-5.506-2.641-6.645a14.331,14.331,0,0,0-7.785-1.724H661.011Z" transform="translate(-629.257 -239.773)" fill="#0d0736"/>
        <path id="Path_19" data-name="Path 19" d="M687.6,284.446a1.58,1.58,0,0,1-1.708-1.376,2.479,2.479,0,0,1,.633-1.487L701.9,261.965,687.407,243.6a2.408,2.408,0,0,1-.634-1.487c0-.933.554-1.408,1.678-1.408H695a6.709,6.709,0,0,1,5.348,2.895l8.353,10.679,8.354-10.616a6.719,6.719,0,0,1,5.347-2.895h6.55c1.124,0,1.677.475,1.677,1.408A2.508,2.508,0,0,1,730,243.66L715.5,262.028l15.378,19.617a2.266,2.266,0,0,1,.633,1.281,1.475,1.475,0,0,1-1.693,1.582h-6.487a6.654,6.654,0,0,1-5.315-2.864l-9.3-11.865-9.3,11.865a6.656,6.656,0,0,1-5.316,2.864Z" transform="translate(-620.42 -239.78)" fill="#0d0736"/>
        <path id="Path_20" data-name="Path 20" d="M766.489,280.145q-6.249,5.459-18.3,5.474t-18.3-5.474q-6.328-5.474-6.328-17.4t6.328-17.324q6.235-5.459,18.3-5.459t18.3,5.459q6.249,5.457,6.233,17.324T766.489,280.145Zm-8.337-28.24q-3.164-3.654-9.967-3.654t-9.967,3.654q-3.164,3.656-3.164,10.9c0,4.841,1.029,8.464,3.164,10.9s5.38,3.639,9.967,3.639,7.91-1.218,9.967-3.639,3.085-6.059,3.085-10.9S760.208,254.342,758.151,251.9Z" transform="translate(-611.27 -239.96)" fill="#0d0736"/>
      </g>
      <g id="Group_18" data-name="Group 18" transform="translate(19.237 43.238)">
        <path id="Path_21" data-name="Path 21" d="M599.018,299.035l5.742,5.791,5.68-5.654a8.253,8.253,0,0,0,.011-11.671l-.011-.012L598.9,275.923A16.438,16.438,0,0,0,599.018,299.035Z" transform="translate(-582.594 -236.526)" fill="url(#linear-gradient)"/>
        <path id="Path_22" data-name="Path 22" d="M589.668,295.114l11.621,11.621a16.438,16.438,0,0,1-.118-23.112c.041-.042.076-.088.118-.13l12.951-12.951,8.864-8.852A8.265,8.265,0,0,0,623.11,250l-5.786-5.775-14.955,14.955-12.728,12.74A16.431,16.431,0,0,0,589.668,295.114Z" transform="translate(-584.864 -244.226)" fill="#00b0ff"/>
      </g>
      <g id="Group_19" data-name="Group 19" transform="translate(0 10)">
        <path id="Path_23" data-name="Path 23" d="M591.59,223.29l-5.729-5.806-5.694,5.669a8.253,8.253,0,0,0-.011,11.671l.011.012,11.54,11.565A16.438,16.438,0,0,0,591.59,223.29Z" transform="translate(-567.357 -217.484)" fill="url(#linear-gradient-2)"/>
        <path id="Path_24" data-name="Path 24" d="M605.242,233.776,593.62,222.155a16.438,16.438,0,0,1,.118,23.112c-.041.042-.076.088-.118.13l-12.95,12.951-8.86,8.846a8.265,8.265,0,0,0-.006,11.688l5.786,5.775,14.95-14.949,12.728-12.74A16.431,16.431,0,0,0,605.242,233.776Z" transform="translate(-569.387 -216.349)" fill="#ff00e5"/>
      </g>
    </g>
  </g>
</svg>
